<svg xmlns="http://www.w3.org/2000/svg" viewBox="0 0 512 512"><defs><style>.a{fill:#273540;}.b,.c,.d{fill:#fff;}.b{opacity:0.7;}.d{opacity:0.8;}.e{fill:none;}</style></defs><title>favicon</title><rect class="a" x="-27.11" y="-10" width="567" height="552"/><path class="b" d="M471,395.86H395.33l-28.07-68L343.4,270.06c15.84-23.18,33.32-39.48,50.16-50.94l8.58,19.61Z"/><path class="c" d="M470.91,192.07c-30.63,6.35-52.76,24.1-68.77,46.64-18.9,26.65-29.24,60-34.88,89.14a365.53,365.53,0,0,0-6.72,68h-64v-2.77a1.25,1.25,0,0,1,0-.19,1.52,1.52,0,0,0,0-.21s0-.05,0-.09v-.05h0c0-.06,0-.09,0-.14s0-.07,0-.11c8.62-54,27.05-93.44,46.7-122.24,15.84-23.19,33.32-39.49,50.16-51,25.32-17.22,49.11-23.51,63.42-25.79a.76.76,0,0,0,.21,0c.5-.09,1-.16,1.45-.22a92.86,92.86,0,0,1,12.05-1Z"/><path class="c" d="M281.85,263.93c-1.42,31.05-8.46,49.88-8.46,49.88-19.66,51.67-50.61,71-68.95,78.12a60.85,60.85,0,0,1-22.1,4.07H135.79V357.51c0-13.65,9.7-24.25,21.6-24.42l3-.1c5.09.1,19.47-1.57,19.52-1.59l2-.31.87-.15,1.88-.33c17-3.12,70.11-25.54,67.71-110.77-.8-27.92-8-47.64-17.3-61.56-1.29-1.92-2.61-3.73-4-5.45a76.19,76.19,0,0,0-43-27.3,9.43,9.43,0,0,1,.95.14l.22,0c33.12,4.5,54.1,25.41,68.81,47.57C275.15,198.81,283.38,231.25,281.85,263.93Z"/><path class="d" d="M254.67,229.66c-.95,88.9-57.78,99.45-75.34,101.84,12.92-1.76,46-9.45,50.29-63.76,1.32-16.71-2.24-33.64-10.76-47.27a63.29,63.29,0,0,0-19-19.53,57.48,57.48,0,0,0-31.74-9.34H113.79l0,109.54c0,18.83-9.74,36-25,44.1l-32.83,17.4V124.1l115.16.2a134.37,134.37,0,0,1,16.61,1.13,52.39,52.39,0,0,1,5.26,1.06,48.7,48.7,0,0,1,9.31,2.94l0,0C224.07,138.78,255.29,170.63,254.67,229.66Z"/><polyline class="e" points="313.02 274.35 317.26 259.19 319.67 250.57"/><path class="c" d="M350.9,124.36l0,.13c-.08.3-.27,1-.55,2.16-3.34,13-20.17,79.28-34.12,145-10,47.1-18.51,93.91-19.52,120.7,0,.05,0,.08,0,.14v-.87l0-1.34-.06,0h0l0,2.79V124.32h36.16Z"/><polygon class="c" points="296.61 390.3 296.64 390.31 296.61 392.9 296.61 393.14 296.58 395.62 296.58 393.09 296.61 390.3"/><path class="c" d="M296.7,390.33l0,1.34v.88h0v.05s0,.06,0,.09v-2.38Z"/><path class="c" d="M296.68,392.4c0,.22,0,.45,0,.67v0a2.54,2.54,0,0,0,0,.26v-.67s0-.05,0-.09v-.05h0C296.67,392.48,296.68,392.45,296.68,392.4Z"/><polyline class="c" points="296.5 395.62 296.56 395.62 296.58 395.62 297.9 395.64"/><path class="b" d="M314.35,279.59s12.44-64.94,58-106.24l-21.44-49L305.13,285.67Z"/><polygon class="c" points="296.7 390.33 296.68 391.67 296.67 392 296.67 392.55 296.65 393.07 296.64 393.09 296.61 393.14 296.58 393.17 296.58 393.09 296.61 390.3 296.64 390.31 296.7 390.33"/><polygon class="c" points="296.7 390.33 296.68 391.67 296.67 392 296.65 392.55 296.65 392.61 296.64 393.09 296.64 393.36 296.58 395.62 296.58 393.09 296.61 390.3 296.64 390.31 296.7 390.33"/></svg>  